<mxfile host="app.diagrams.net" modified="2023-06-03T20:34:00.514Z" agent="Mozilla/5.0 (Macintosh; Intel Mac OS X 10_15_7) AppleWebKit/537.36 (KHTML, like Gecko) Chrome/114.0.0.0 Safari/537.36" etag="eW9K0O--OaFPxGKNAddu" version="21.3.7" type="github">
  <diagram name="Page-1" id="Udj6XYBrwRA6Yvyd2tJ3">
    <mxGraphModel dx="966" dy="535" grid="1" gridSize="10" guides="1" tooltips="1" connect="1" arrows="1" fold="1" page="1" pageScale="1" pageWidth="827" pageHeight="1169" math="0" shadow="0">
      <root>
        <mxCell id="0" />
        <mxCell id="1" parent="0" />
        <mxCell id="faAj16WfC-qljpLo8FJ9-1" value="Problem Solving" style="text;strokeColor=none;fillColor=none;html=1;fontSize=24;fontStyle=1;verticalAlign=middle;align=center;" vertex="1" parent="1">
          <mxGeometry x="310" y="40" width="190" height="40" as="geometry" />
        </mxCell>
        <mxCell id="faAj16WfC-qljpLo8FJ9-13" value="" style="edgeStyle=orthogonalEdgeStyle;rounded=0;orthogonalLoop=1;jettySize=auto;html=1;" edge="1" parent="1" source="faAj16WfC-qljpLo8FJ9-11" target="faAj16WfC-qljpLo8FJ9-12">
          <mxGeometry relative="1" as="geometry" />
        </mxCell>
        <mxCell id="faAj16WfC-qljpLo8FJ9-11" value="Github Repo" style="shape=parallelogram;perimeter=parallelogramPerimeter;whiteSpace=wrap;html=1;fixedSize=1;" vertex="1" parent="1">
          <mxGeometry x="80" y="120" width="120" height="60" as="geometry" />
        </mxCell>
        <mxCell id="faAj16WfC-qljpLo8FJ9-18" style="edgeStyle=orthogonalEdgeStyle;rounded=0;orthogonalLoop=1;jettySize=auto;html=1;exitX=0.5;exitY=1;exitDx=0;exitDy=0;entryX=0.5;entryY=0;entryDx=0;entryDy=0;" edge="1" parent="1" source="faAj16WfC-qljpLo8FJ9-12" target="faAj16WfC-qljpLo8FJ9-14">
          <mxGeometry relative="1" as="geometry" />
        </mxCell>
        <mxCell id="faAj16WfC-qljpLo8FJ9-12" value="Frontend in NextJS or Vanilla JS" style="whiteSpace=wrap;html=1;" vertex="1" parent="1">
          <mxGeometry x="280" y="120" width="120" height="60" as="geometry" />
        </mxCell>
        <mxCell id="faAj16WfC-qljpLo8FJ9-17" value="" style="edgeStyle=orthogonalEdgeStyle;rounded=0;orthogonalLoop=1;jettySize=auto;html=1;" edge="1" parent="1" source="faAj16WfC-qljpLo8FJ9-14" target="faAj16WfC-qljpLo8FJ9-16">
          <mxGeometry relative="1" as="geometry" />
        </mxCell>
        <mxCell id="faAj16WfC-qljpLo8FJ9-14" value="Update files in git and frontend." style="shape=parallelogram;perimeter=parallelogramPerimeter;whiteSpace=wrap;html=1;fixedSize=1;" vertex="1" parent="1">
          <mxGeometry x="280" y="240" width="120" height="60" as="geometry" />
        </mxCell>
        <mxCell id="faAj16WfC-qljpLo8FJ9-20" value="" style="edgeStyle=orthogonalEdgeStyle;rounded=0;orthogonalLoop=1;jettySize=auto;html=1;" edge="1" parent="1" source="faAj16WfC-qljpLo8FJ9-16" target="faAj16WfC-qljpLo8FJ9-19">
          <mxGeometry relative="1" as="geometry" />
        </mxCell>
        <mxCell id="faAj16WfC-qljpLo8FJ9-16" value="Show Collaborators and Other data info." style="rounded=1;whiteSpace=wrap;html=1;" vertex="1" parent="1">
          <mxGeometry x="280" y="370" width="120" height="60" as="geometry" />
        </mxCell>
        <mxCell id="faAj16WfC-qljpLo8FJ9-19" value="Integrate Code Playground inside the website." style="ellipse;whiteSpace=wrap;html=1;rounded=1;" vertex="1" parent="1">
          <mxGeometry x="510" y="305" width="210" height="190" as="geometry" />
        </mxCell>
      </root>
    </mxGraphModel>
  </diagram>
</mxfile>
